<svg width="777" height="144" viewBox="0 0 777 144" fill="none" xmlns="http://www.w3.org/2000/svg">
<path d="M0.562501 112V-3.33786e-06H38.4063C47.1563 -3.33786e-06 54.3385 1.49479 59.9531 4.48437C65.5677 7.43749 69.724 11.5026 72.4219 16.6797C75.1198 21.8568 76.4688 27.7448 76.4688 34.3437C76.4688 40.9427 75.1198 46.7943 72.4219 51.8984C69.724 57.0026 65.5859 61.013 60.0078 63.9297C54.4297 66.8099 47.3021 68.25 38.625 68.25H8V56H38.1875C44.1667 56 48.9792 55.125 52.625 53.375C56.3073 51.625 58.9688 49.1458 60.6094 45.9375C62.2865 42.6927 63.125 38.8281 63.125 34.3437C63.125 29.8594 62.2865 25.9401 60.6094 22.5859C58.9323 19.2318 56.2526 16.6432 52.5703 14.8203C48.888 12.9609 44.0208 12.0312 37.9687 12.0312H14.125V112H0.562501ZM53.2813 61.6875L80.8438 112H65.0938L37.9687 61.6875H53.2813ZM131.635 113.75C123.541 113.75 116.559 111.964 110.689 108.391C104.856 104.781 100.354 99.75 97.1816 93.2969C94.0462 86.8073 92.4785 79.2604 92.4785 70.6563C92.4785 62.0521 94.0462 54.4687 97.1816 47.9062C100.354 41.3073 104.765 36.1667 110.416 32.4844C116.104 28.7656 122.739 26.9063 130.322 26.9063C134.697 26.9063 139.018 27.6354 143.283 29.0937C147.549 30.5521 151.432 32.9219 154.932 36.2031C158.432 39.4479 161.221 43.75 163.299 49.1094C165.377 54.4687 166.416 61.0677 166.416 68.9062V74.375H101.666V63.2187H153.291C153.291 58.4792 152.343 54.25 150.447 50.5312C148.588 46.8125 145.926 43.8776 142.463 41.7266C139.036 39.5755 134.989 38.5 130.322 38.5C125.182 38.5 120.734 39.776 116.979 42.3281C113.26 44.8437 110.398 48.125 108.393 52.1719C106.387 56.2187 105.385 60.5573 105.385 65.1875V72.625C105.385 78.9688 106.479 84.3464 108.666 88.7578C110.89 93.1328 113.971 96.4687 117.908 98.7656C121.846 101.026 126.421 102.156 131.635 102.156C135.025 102.156 138.088 101.682 140.822 100.734C143.593 99.75 145.981 98.2917 147.986 96.3594C149.992 94.3906 151.541 91.9479 152.635 89.0312L165.104 92.5313C163.791 96.7604 161.585 100.479 158.486 103.687C155.387 106.859 151.559 109.339 147.002 111.125C142.445 112.875 137.322 113.75 131.635 113.75ZM220.174 113.75C212.299 113.75 205.518 111.891 199.83 108.172C194.143 104.453 189.768 99.3307 186.705 92.8047C183.643 86.2786 182.111 78.8229 182.111 70.4375C182.111 61.9062 183.679 54.3776 186.814 47.8516C189.986 41.2891 194.398 36.1667 200.049 32.4844C205.736 28.7656 212.372 26.9063 219.955 26.9063C225.861 26.9063 231.184 28 235.924 30.1875C240.663 32.375 244.546 35.4375 247.572 39.375C250.598 43.3125 252.476 47.9062 253.205 53.1562H240.299C239.314 49.3281 237.127 45.9375 233.736 42.9844C230.382 39.9948 225.861 38.5 220.174 38.5C215.143 38.5 210.731 39.8125 206.939 42.4375C203.184 45.026 200.249 48.6901 198.135 53.4297C196.057 58.1328 195.018 63.6562 195.018 70C195.018 76.4896 196.038 82.1406 198.08 86.9531C200.158 91.7656 203.075 95.5026 206.83 98.1641C210.622 100.826 215.07 102.156 220.174 102.156C223.528 102.156 226.572 101.573 229.307 100.406C232.041 99.2396 234.356 97.5625 236.252 95.375C238.148 93.1875 239.497 90.5625 240.299 87.5H253.205C252.476 92.4583 250.671 96.9245 247.791 100.898C244.947 104.836 241.174 107.971 236.471 110.305C231.804 112.602 226.372 113.75 220.174 113.75ZM296.791 113.969C291.468 113.969 286.637 112.966 282.299 110.961C277.96 108.919 274.515 105.984 271.963 102.156C269.411 98.2917 268.135 93.625 268.135 88.1562C268.135 83.3437 269.083 79.4427 270.979 76.4531C272.874 73.4271 275.408 71.0573 278.58 69.3437C281.752 67.6302 285.252 66.3542 289.08 65.5156C292.945 64.6406 296.827 63.9479 300.729 63.4375C305.833 62.7812 309.971 62.2891 313.143 61.9609C316.351 61.5964 318.684 60.9948 320.143 60.1562C321.637 59.3177 322.385 57.8594 322.385 55.7812V55.3437C322.385 49.9479 320.908 45.7552 317.955 42.7656C315.038 39.776 310.609 38.2812 304.666 38.2812C298.505 38.2812 293.674 39.6302 290.174 42.3281C286.674 45.026 284.213 47.9062 282.791 50.9687L270.541 46.5937C272.729 41.4896 275.645 37.5156 279.291 34.6719C282.973 31.7917 286.984 29.7865 291.322 28.6562C295.697 27.4896 299.999 26.9063 304.229 26.9063C306.926 26.9063 310.025 27.2344 313.525 27.8906C317.062 28.5104 320.471 29.8047 323.752 31.7734C327.07 33.7422 329.822 36.7135 332.01 40.6875C334.197 44.6615 335.291 49.9844 335.291 56.6562V112H322.385V100.625H321.729C320.854 102.448 319.395 104.398 317.354 106.477C315.312 108.555 312.596 110.323 309.205 111.781C305.814 113.24 301.676 113.969 296.791 113.969ZM298.76 102.375C303.864 102.375 308.166 101.372 311.666 99.3672C315.202 97.362 317.864 94.7734 319.65 91.6016C321.473 88.4297 322.385 85.0937 322.385 81.5937V69.7812C321.838 70.4375 320.635 71.0391 318.775 71.5859C316.952 72.0964 314.838 72.5521 312.432 72.9531C310.062 73.3177 307.747 73.6458 305.486 73.9375C303.262 74.1927 301.458 74.4115 300.072 74.5937C296.718 75.0312 293.583 75.7422 290.666 76.7266C287.786 77.6745 285.452 79.1146 283.666 81.0469C281.916 82.9427 281.041 85.5312 281.041 88.8125C281.041 93.2969 282.7 96.6875 286.018 98.9844C289.372 101.245 293.619 102.375 298.76 102.375ZM358.848 143.5V28H371.316V41.3437H372.848C373.796 39.8854 375.108 38.026 376.785 35.7656C378.499 33.4687 380.941 31.4271 384.113 29.6406C387.322 27.8177 391.66 26.9063 397.129 26.9063C404.202 26.9063 410.436 28.6745 415.832 32.2109C421.228 35.7474 425.439 40.7604 428.465 47.25C431.491 53.7396 433.004 61.3958 433.004 70.2188C433.004 79.1146 431.491 86.8255 428.465 93.3516C425.439 99.8411 421.246 104.872 415.887 108.445C410.527 111.982 404.348 113.75 397.348 113.75C391.952 113.75 387.632 112.857 384.387 111.07C381.142 109.247 378.645 107.187 376.895 104.891C375.145 102.557 373.796 100.625 372.848 99.0937H371.754V143.5H358.848ZM371.535 70C371.535 76.3437 372.465 81.9401 374.324 86.7891C376.184 91.6016 378.9 95.375 382.473 98.1094C386.046 100.807 390.421 102.156 395.598 102.156C400.993 102.156 405.496 100.734 409.105 97.8906C412.751 95.0104 415.486 91.1458 417.309 86.2969C419.168 81.4115 420.098 75.9792 420.098 70C420.098 64.0937 419.186 58.7708 417.363 54.0312C415.577 49.2552 412.861 45.4818 409.215 42.7109C405.605 39.9036 401.066 38.5 395.598 38.5C390.348 38.5 385.936 39.8307 382.363 42.4922C378.79 45.1172 376.092 48.7995 374.27 53.5391C372.447 58.2422 371.535 63.7292 371.535 70ZM454.441 112V-3.33786e-06H521.598V12.0312H468.004V49.875H516.566V61.9062H468.004V112H454.441ZM555.982 -3.33786e-06V112H543.076V-3.33786e-06H555.982ZM613.746 113.75C606.163 113.75 599.509 111.945 593.785 108.336C588.098 104.727 583.65 99.6771 580.441 93.1875C577.27 86.6979 575.684 79.1146 575.684 70.4375C575.684 61.6875 577.27 54.0495 580.441 47.5234C583.65 40.9974 588.098 35.9297 593.785 32.3203C599.509 28.7109 606.163 26.9063 613.746 26.9063C621.329 26.9063 627.965 28.7109 633.652 32.3203C639.376 35.9297 643.824 40.9974 646.996 47.5234C650.204 54.0495 651.809 61.6875 651.809 70.4375C651.809 79.1146 650.204 86.6979 646.996 93.1875C643.824 99.6771 639.376 104.727 633.652 108.336C627.965 111.945 621.329 113.75 613.746 113.75ZM613.746 102.156C619.507 102.156 624.246 100.68 627.965 97.7266C631.684 94.7734 634.436 90.8906 636.223 86.0781C638.009 81.2656 638.902 76.0521 638.902 70.4375C638.902 64.8229 638.009 59.5911 636.223 54.7422C634.436 49.8932 631.684 45.974 627.965 42.9844C624.246 39.9948 619.507 38.5 613.746 38.5C607.986 38.5 603.246 39.9948 599.527 42.9844C595.809 45.974 593.056 49.8932 591.27 54.7422C589.483 59.5911 588.59 64.8229 588.59 70.4375C588.59 76.0521 589.483 81.2656 591.27 86.0781C593.056 90.8906 595.809 94.7734 599.527 97.7266C603.246 100.68 607.986 102.156 613.746 102.156ZM687.684 112L662.09 28H675.652L693.809 92.3125H694.684L712.621 28H726.402L744.121 92.0937H744.996L763.152 28H776.715L751.121 112H738.434L720.059 47.4687H718.746L700.371 112H687.684Z" fill="url(#paint0_linear_1_9)"/>
<defs>
<linearGradient id="paint0_linear_1_9" x1="-13" y1="56" x2="782" y2="56" gradientUnits="userSpaceOnUse">
<stop stop-color="#6B46C1"/>
<stop offset="1" stop-color="#2563EB"/>
</linearGradient>
</defs>
</svg>
